<svg width="74" height="74" viewBox="0 0 74 74" fill="none" xmlns="http://www.w3.org/2000/svg">
<path d="M48.1256 11.8445L38.2359 21.7342L23.4922 25.9517C22.0701 26.3342 20.7653 27.0642 19.6954 28.0761C18.6255 29.088 17.8239 30.35 17.3628 31.7485L8.44434 59.287L11.5812 62.4239L14.7181 65.5607L42.2653 56.6357C43.6566 56.1751 44.9122 55.377 45.9199 54.3128C46.9277 53.2486 47.6561 51.9514 48.0403 50.537L52.26 35.7757L62.1562 25.8751L48.1256 11.8445ZM48.1256 18.0307L55.97 25.8751L50.3131 31.532L42.4687 23.6876L48.1256 18.0307ZM38.7412 26.1485L47.8521 35.2573L43.8228 49.3667C43.6296 50.0856 43.2617 50.7455 42.7519 51.2879C42.242 51.8302 41.6059 52.238 40.9003 52.4751L16.8225 60.2735L29.499 47.597C29.8663 47.6968 30.245 47.7483 30.6256 47.7501C31.7859 47.7501 32.8987 47.2892 33.7192 46.4687C34.5396 45.6482 35.0006 44.5354 35.0006 43.3751C35.0006 42.2148 34.5396 41.102 33.7192 40.2815C32.8987 39.461 31.7859 39.0001 30.6256 39.0001C29.9553 39.0009 29.2941 39.1557 28.693 39.4525C28.092 39.7494 27.5673 40.1804 27.1593 40.7123C26.7513 41.2442 26.471 41.8627 26.34 42.5201C26.209 43.1775 26.2308 43.8562 26.4037 44.5039L13.7271 57.1782L21.5212 33.1157C21.7592 32.4019 22.1712 31.7586 22.72 31.2438C23.2688 30.729 23.9371 30.3589 24.6646 30.167L38.7434 26.1464L38.7412 26.1485Z" fill="#1652F0"/>
</svg>
