<svg width="24" height="24" viewBox="0 0 74 74" fill="none" xmlns="http://www.w3.org/2000/svg">
<path d="M58.3328 49.6691L47.8076 42.8278L49.725 39.3126H53.1111C54.2591 39.3126 55.3892 39.0276 56.4 38.4834C57.4108 37.9391 58.2708 37.1525 58.9028 36.1941C59.5348 35.2357 59.919 34.1354 60.0211 32.9919C60.1232 31.8484 59.9399 30.6975 59.4876 29.6423L52.2598 13.0902C51.1412 9.93747 49.0736 7.20854 46.3411 5.27861C43.6086 3.34868 40.3453 2.3125 37 2.3125C33.6547 2.3125 30.3915 3.34868 27.659 5.27861C24.9265 7.20854 22.8588 9.93747 21.7403 13.0902L14.5124 29.6423C14.0602 30.6975 13.8769 31.8484 13.979 32.9919C14.081 34.1354 14.4653 35.2357 15.0973 36.1941C15.7293 37.1525 16.5892 37.9391 17.6 38.4834C18.6109 39.0276 19.7409 39.3126 20.889 39.3126H24.2751L26.1924 42.8278L15.6672 49.6691C14.0496 50.7162 12.7205 52.1523 11.8014 53.846C10.8823 55.5396 10.4026 57.4367 10.4063 59.3637V71.6876H63.5938V59.3637C63.5974 57.4367 63.1177 55.5396 62.1986 53.846C61.2795 52.1524 59.9504 50.7163 58.3328 49.6691ZM58.9688 67.0626H15.0313V59.3637C15.0291 58.2075 15.3169 57.0692 15.8684 56.053C16.4199 55.0368 17.2174 54.1752 18.188 53.5469L32.3029 44.3722L27.0206 34.6876H20.889C20.5067 34.6875 20.1305 34.5928 19.7938 34.4118C19.4572 34.2307 19.1706 33.9691 18.9599 33.6502C18.7491 33.3313 18.6206 32.9652 18.586 32.5845C18.5514 32.2038 18.6117 31.8205 18.7615 31.4688L26.0129 14.8622L26.0777 14.697C26.8677 12.4299 28.3437 10.4649 30.3008 9.07444C32.2579 7.68395 34.5992 6.9369 37 6.9369C39.4008 6.9369 41.7421 7.68395 43.6992 9.07444C45.6563 10.4649 47.1323 12.4299 47.9224 14.697L47.9513 14.7808L55.2386 31.4688C55.3884 31.8205 55.4486 32.2038 55.414 32.5845C55.3794 32.9652 55.251 33.3313 55.0402 33.6502C54.8294 33.9691 54.5429 34.2307 54.2062 34.4118C53.8696 34.5928 53.4933 34.6875 53.1111 34.6876H46.9795L41.6973 44.3722L55.8124 53.5469C56.7829 54.1752 57.5803 55.0369 58.1318 56.0531C58.6832 57.0692 58.971 58.2075 58.9688 59.3637V67.0626Z" fill="#1652F0"/>
</svg>
