<svg width="461" height="228" viewBox="0 0 461 228" fill="none" xmlns="http://www.w3.org/2000/svg">
<path d="M31.0918 58.0801C32.0293 58.0801 33.1543 57.875 34.4668 57.4648V61.4551C33.1309 62.0527 31.4902 62.3516 29.5449 62.3516C27.4004 62.3516 25.8359 61.8125 24.8516 60.7344C23.8789 59.6445 23.3926 58.0156 23.3926 55.8477V46.373H20.8262V44.1055L23.7793 42.3125L25.3262 38.1641H28.7539V42.3477H34.2559V46.373H28.7539V55.8477C28.7539 56.6094 28.9648 57.1719 29.3867 57.5352C29.8203 57.8984 30.3887 58.0801 31.0918 58.0801ZM56.5977 62H51.2363V50.5215C51.2363 47.6855 50.1816 46.2676 48.0723 46.2676C46.5723 46.2676 45.4883 46.7773 44.8203 47.7969C44.1523 48.8164 43.8184 50.4688 43.8184 52.7539V62H38.457V34.6484H43.8184V40.2207C43.8184 40.6543 43.7773 41.6738 43.6953 43.2793L43.5723 44.8613H43.8535C45.0488 42.9395 46.9473 41.9785 49.5488 41.9785C51.8574 41.9785 53.6094 42.5996 54.8047 43.8418C56 45.084 56.5977 46.8652 56.5977 49.1855V62ZM70.2559 45.793C69.1191 45.793 68.2285 46.1562 67.584 46.8828C66.9395 47.5977 66.5703 48.6172 66.4766 49.9414H74C73.9766 48.6172 73.6309 47.5977 72.9629 46.8828C72.2949 46.1562 71.3926 45.793 70.2559 45.793ZM71.0117 62.3516C67.8477 62.3516 65.375 61.4785 63.5938 59.7324C61.8125 57.9863 60.9219 55.5137 60.9219 52.3145C60.9219 49.0215 61.7422 46.4785 63.3828 44.6855C65.0352 42.8809 67.3145 41.9785 70.2207 41.9785C72.998 41.9785 75.1602 42.7695 76.707 44.3516C78.2539 45.9336 79.0273 48.1191 79.0273 50.9082V53.5098H66.3535C66.4121 55.0332 66.8633 56.2227 67.707 57.0781C68.5508 57.9336 69.7344 58.3613 71.2578 58.3613C72.4414 58.3613 73.5605 58.2383 74.6152 57.9922C75.6699 57.7461 76.7715 57.3535 77.9199 56.8145V60.9629C76.9824 61.4316 75.9805 61.7773 74.9141 62C73.8477 62.2344 72.5469 62.3516 71.0117 62.3516ZM92.5098 37.2676C92.5098 35.5215 93.4824 34.6484 95.4277 34.6484C97.373 34.6484 98.3457 35.5215 98.3457 37.2676C98.3457 38.0996 98.0996 38.75 97.6074 39.2188C97.127 39.6758 96.4004 39.9043 95.4277 39.9043C93.4824 39.9043 92.5098 39.0254 92.5098 37.2676ZM98.0996 62H92.7383V42.3477H98.0996V62ZM121.883 62H116.521V50.5215C116.521 49.1035 116.27 48.043 115.766 47.3398C115.262 46.625 114.459 46.2676 113.357 46.2676C111.857 46.2676 110.773 46.7715 110.105 47.7793C109.438 48.7754 109.104 50.4336 109.104 52.7539V62H103.742V42.3477H107.838L108.559 44.8613H108.857C109.455 43.9121 110.275 43.1973 111.318 42.7168C112.373 42.2246 113.568 41.9785 114.904 41.9785C117.189 41.9785 118.924 42.5996 120.107 43.8418C121.291 45.0723 121.883 46.8535 121.883 49.1855V62ZM135.682 58.0801C136.619 58.0801 137.744 57.875 139.057 57.4648V61.4551C137.721 62.0527 136.08 62.3516 134.135 62.3516C131.99 62.3516 130.426 61.8125 129.441 60.7344C128.469 59.6445 127.982 58.0156 127.982 55.8477V46.373H125.416V44.1055L128.369 42.3125L129.916 38.1641H133.344V42.3477H138.846V46.373H133.344V55.8477C133.344 56.6094 133.555 57.1719 133.977 57.5352C134.41 57.8984 134.979 58.0801 135.682 58.0801ZM151.186 45.793C150.049 45.793 149.158 46.1562 148.514 46.8828C147.869 47.5977 147.5 48.6172 147.406 49.9414H154.93C154.906 48.6172 154.561 47.5977 153.893 46.8828C153.225 46.1562 152.322 45.793 151.186 45.793ZM151.941 62.3516C148.777 62.3516 146.305 61.4785 144.523 59.7324C142.742 57.9863 141.852 55.5137 141.852 52.3145C141.852 49.0215 142.672 46.4785 144.312 44.6855C145.965 42.8809 148.244 41.9785 151.15 41.9785C153.928 41.9785 156.09 42.7695 157.637 44.3516C159.184 45.9336 159.957 48.1191 159.957 50.9082V53.5098H147.283C147.342 55.0332 147.793 56.2227 148.637 57.0781C149.48 57.9336 150.664 58.3613 152.188 58.3613C153.371 58.3613 154.49 58.2383 155.545 57.9922C156.6 57.7461 157.701 57.3535 158.85 56.8145V60.9629C157.912 61.4316 156.91 61.7773 155.844 62C154.777 62.2344 153.477 62.3516 151.941 62.3516ZM175.285 41.9785C176.012 41.9785 176.615 42.0312 177.096 42.1367L176.691 47.1641C176.258 47.0469 175.73 46.9883 175.109 46.9883C173.398 46.9883 172.062 47.4277 171.102 48.3066C170.152 49.1855 169.678 50.416 169.678 51.998V62H164.316V42.3477H168.377L169.168 45.6523H169.432C170.041 44.5508 170.861 43.666 171.893 42.998C172.936 42.3184 174.066 41.9785 175.285 41.9785ZM198.805 62H193.443V50.5215C193.443 49.1035 193.191 48.043 192.688 47.3398C192.184 46.625 191.381 46.2676 190.279 46.2676C188.779 46.2676 187.695 46.7715 187.027 47.7793C186.359 48.7754 186.025 50.4336 186.025 52.7539V62H180.664V42.3477H184.76L185.48 44.8613H185.779C186.377 43.9121 187.197 43.1973 188.24 42.7168C189.295 42.2246 190.49 41.9785 191.826 41.9785C194.111 41.9785 195.846 42.5996 197.029 43.8418C198.213 45.0723 198.805 46.8535 198.805 49.1855V62ZM218.035 56.1641C218.035 58.1797 217.332 59.7148 215.926 60.7695C214.531 61.8242 212.439 62.3516 209.65 62.3516C208.221 62.3516 207.002 62.252 205.994 62.0527C204.986 61.8652 204.043 61.584 203.164 61.209V56.7793C204.16 57.248 205.279 57.6406 206.521 57.957C207.775 58.2734 208.877 58.4316 209.826 58.4316C211.771 58.4316 212.744 57.8691 212.744 56.7441C212.744 56.3223 212.615 55.9824 212.357 55.7246C212.1 55.4551 211.654 55.1562 211.021 54.8281C210.389 54.4883 209.545 54.0957 208.49 53.6504C206.979 53.0176 205.865 52.4316 205.15 51.8926C204.447 51.3535 203.932 50.7383 203.604 50.0469C203.287 49.3438 203.129 48.4824 203.129 47.4629C203.129 45.7168 203.803 44.3691 205.15 43.4199C206.51 42.459 208.432 41.9785 210.916 41.9785C213.283 41.9785 215.586 42.4941 217.824 43.5254L216.207 47.3926C215.223 46.9707 214.303 46.625 213.447 46.3555C212.592 46.0859 211.719 45.9512 210.828 45.9512C209.246 45.9512 208.455 46.3789 208.455 47.2344C208.455 47.7148 208.707 48.1309 209.211 48.4824C209.727 48.834 210.846 49.3555 212.568 50.0469C214.104 50.668 215.229 51.248 215.943 51.7871C216.658 52.3262 217.186 52.9473 217.525 53.6504C217.865 54.3535 218.035 55.1914 218.035 56.1641ZM245.492 62L244.771 59.4863H244.49C243.916 60.4004 243.102 61.1094 242.047 61.6133C240.992 62.1055 239.791 62.3516 238.443 62.3516C236.135 62.3516 234.395 61.7363 233.223 60.5059C232.051 59.2637 231.465 57.4824 231.465 55.1621V42.3477H236.826V53.8262C236.826 55.2441 237.078 56.3105 237.582 57.0254C238.086 57.7285 238.889 58.0801 239.99 58.0801C241.49 58.0801 242.574 57.582 243.242 56.5859C243.91 55.5781 244.244 53.9141 244.244 51.5938V42.3477H249.605V62H245.492ZM268.941 56.1641C268.941 58.1797 268.238 59.7148 266.832 60.7695C265.438 61.8242 263.346 62.3516 260.557 62.3516C259.127 62.3516 257.908 62.252 256.9 62.0527C255.893 61.8652 254.949 61.584 254.07 61.209V56.7793C255.066 57.248 256.186 57.6406 257.428 57.957C258.682 58.2734 259.783 58.4316 260.732 58.4316C262.678 58.4316 263.65 57.8691 263.65 56.7441C263.65 56.3223 263.521 55.9824 263.264 55.7246C263.006 55.4551 262.561 55.1562 261.928 54.8281C261.295 54.4883 260.451 54.0957 259.396 53.6504C257.885 53.0176 256.771 52.4316 256.057 51.8926C255.354 51.3535 254.838 50.7383 254.51 50.0469C254.193 49.3438 254.035 48.4824 254.035 47.4629C254.035 45.7168 254.709 44.3691 256.057 43.4199C257.416 42.459 259.338 41.9785 261.822 41.9785C264.189 41.9785 266.492 42.4941 268.73 43.5254L267.113 47.3926C266.129 46.9707 265.209 46.625 264.354 46.3555C263.498 46.0859 262.625 45.9512 261.734 45.9512C260.152 45.9512 259.361 46.3789 259.361 47.2344C259.361 47.7148 259.613 48.1309 260.117 48.4824C260.633 48.834 261.752 49.3555 263.475 50.0469C265.01 50.668 266.135 51.248 266.85 51.7871C267.564 52.3262 268.092 52.9473 268.432 53.6504C268.771 54.3535 268.941 55.1914 268.941 56.1641ZM281.264 45.793C280.127 45.793 279.236 46.1562 278.592 46.8828C277.947 47.5977 277.578 48.6172 277.484 49.9414H285.008C284.984 48.6172 284.639 47.5977 283.971 46.8828C283.303 46.1562 282.4 45.793 281.264 45.793ZM282.02 62.3516C278.855 62.3516 276.383 61.4785 274.602 59.7324C272.82 57.9863 271.93 55.5137 271.93 52.3145C271.93 49.0215 272.75 46.4785 274.391 44.6855C276.043 42.8809 278.322 41.9785 281.229 41.9785C284.006 41.9785 286.168 42.7695 287.715 44.3516C289.262 45.9336 290.035 48.1191 290.035 50.9082V53.5098H277.361C277.42 55.0332 277.871 56.2227 278.715 57.0781C279.559 57.9336 280.742 58.3613 282.266 58.3613C283.449 58.3613 284.568 58.2383 285.623 57.9922C286.678 57.7461 287.779 57.3535 288.928 56.8145V60.9629C287.99 61.4316 286.988 61.7773 285.922 62C284.855 62.2344 283.555 62.3516 282.02 62.3516ZM312.025 58.0801C312.963 58.0801 314.088 57.875 315.4 57.4648V61.4551C314.064 62.0527 312.424 62.3516 310.479 62.3516C308.334 62.3516 306.77 61.8125 305.785 60.7344C304.812 59.6445 304.326 58.0156 304.326 55.8477V46.373H301.76V44.1055L304.713 42.3125L306.26 38.1641H309.688V42.3477H315.189V46.373H309.688V55.8477C309.688 56.6094 309.898 57.1719 310.32 57.5352C310.754 57.8984 311.322 58.0801 312.025 58.0801ZM337.531 62H332.17V50.5215C332.17 47.6855 331.115 46.2676 329.006 46.2676C327.506 46.2676 326.422 46.7773 325.754 47.7969C325.086 48.8164 324.752 50.4688 324.752 52.7539V62H319.391V34.6484H324.752V40.2207C324.752 40.6543 324.711 41.6738 324.629 43.2793L324.506 44.8613H324.787C325.982 42.9395 327.881 41.9785 330.482 41.9785C332.791 41.9785 334.543 42.5996 335.738 43.8418C336.934 45.084 337.531 46.8652 337.531 49.1855V62ZM342.822 37.2676C342.822 35.5215 343.795 34.6484 345.74 34.6484C347.686 34.6484 348.658 35.5215 348.658 37.2676C348.658 38.0996 348.412 38.75 347.92 39.2188C347.439 39.6758 346.713 39.9043 345.74 39.9043C343.795 39.9043 342.822 39.0254 342.822 37.2676ZM348.412 62H343.051V42.3477H348.412V62ZM367.766 56.1641C367.766 58.1797 367.062 59.7148 365.656 60.7695C364.262 61.8242 362.17 62.3516 359.381 62.3516C357.951 62.3516 356.732 62.252 355.725 62.0527C354.717 61.8652 353.773 61.584 352.895 61.209V56.7793C353.891 57.248 355.01 57.6406 356.252 57.957C357.506 58.2734 358.607 58.4316 359.557 58.4316C361.502 58.4316 362.475 57.8691 362.475 56.7441C362.475 56.3223 362.346 55.9824 362.088 55.7246C361.83 55.4551 361.385 55.1562 360.752 54.8281C360.119 54.4883 359.275 54.0957 358.221 53.6504C356.709 53.0176 355.596 52.4316 354.881 51.8926C354.178 51.3535 353.662 50.7383 353.334 50.0469C353.018 49.3438 352.859 48.4824 352.859 47.4629C352.859 45.7168 353.533 44.3691 354.881 43.4199C356.24 42.459 358.162 41.9785 360.646 41.9785C363.014 41.9785 365.316 42.4941 367.555 43.5254L365.938 47.3926C364.953 46.9707 364.033 46.625 363.178 46.3555C362.322 46.0859 361.449 45.9512 360.559 45.9512C358.977 45.9512 358.186 46.3789 358.186 47.2344C358.186 47.7148 358.438 48.1309 358.941 48.4824C359.457 48.834 360.576 49.3555 362.299 50.0469C363.834 50.668 364.959 51.248 365.674 51.7871C366.389 52.3262 366.916 52.9473 367.256 53.6504C367.596 54.3535 367.766 55.1914 367.766 56.1641ZM40.4082 111H35.0469V99.5215C35.0469 98.1035 34.8066 97.043 34.3262 96.3398C33.8574 95.625 33.1133 95.2676 32.0938 95.2676C30.7227 95.2676 29.7266 95.7715 29.1055 96.7793C28.4844 97.7871 28.1738 99.4453 28.1738 101.754V111H22.8125V91.3477H26.9082L27.6289 93.8613H27.9277C28.4551 92.959 29.2168 92.2559 30.2129 91.752C31.209 91.2363 32.3516 90.9785 33.6406 90.9785C36.582 90.9785 38.5742 91.9395 39.6172 93.8613H40.0918C40.6191 92.9473 41.3926 92.2383 42.4121 91.7344C43.4434 91.2305 44.6035 90.9785 45.8926 90.9785C48.1191 90.9785 49.8008 91.5527 50.9375 92.7012C52.0859 93.8379 52.6602 95.666 52.6602 98.1855V111H47.2812V99.5215C47.2812 98.1035 47.041 97.043 46.5605 96.3398C46.0918 95.625 45.3477 95.2676 44.3281 95.2676C43.0156 95.2676 42.0312 95.7363 41.375 96.6738C40.7305 97.6113 40.4082 99.0996 40.4082 101.139V111ZM62.4512 101.139C62.4512 103.084 62.7676 104.555 63.4004 105.551C64.0449 106.547 65.0879 107.045 66.5293 107.045C67.959 107.045 68.9844 106.553 69.6055 105.568C70.2383 104.572 70.5547 103.096 70.5547 101.139C70.5547 99.1934 70.2383 97.7344 69.6055 96.7617C68.9727 95.7891 67.9355 95.3027 66.4941 95.3027C65.0645 95.3027 64.0332 95.7891 63.4004 96.7617C62.7676 97.7227 62.4512 99.1816 62.4512 101.139ZM76.0391 101.139C76.0391 104.338 75.1953 106.84 73.5078 108.645C71.8203 110.449 69.4707 111.352 66.459 111.352C64.5723 111.352 62.9082 110.941 61.4668 110.121C60.0254 109.289 58.918 108.1 58.1445 106.553C57.3711 105.006 56.9844 103.201 56.9844 101.139C56.9844 97.9277 57.8223 95.4316 59.498 93.6504C61.1738 91.8691 63.5293 90.9785 66.5645 90.9785C68.4512 90.9785 70.1152 91.3887 71.5566 92.209C72.998 93.0293 74.1055 94.207 74.8789 95.7422C75.6523 97.2773 76.0391 99.0762 76.0391 101.139ZM98.6094 111H93.248V99.5215C93.248 98.1035 92.9961 97.043 92.4922 96.3398C91.9883 95.625 91.1855 95.2676 90.084 95.2676C88.584 95.2676 87.5 95.7715 86.832 96.7793C86.1641 97.7754 85.8301 99.4336 85.8301 101.754V111H80.4688V91.3477H84.5645L85.2852 93.8613H85.584C86.1816 92.9121 87.002 92.1973 88.0449 91.7168C89.0996 91.2246 90.2949 90.9785 91.6309 90.9785C93.916 90.9785 95.6504 91.5996 96.834 92.8418C98.0176 94.0723 98.6094 95.8535 98.6094 98.1855V111ZM112.268 94.793C111.131 94.793 110.24 95.1562 109.596 95.8828C108.951 96.5977 108.582 97.6172 108.488 98.9414H116.012C115.988 97.6172 115.643 96.5977 114.975 95.8828C114.307 95.1562 113.404 94.793 112.268 94.793ZM113.023 111.352C109.859 111.352 107.387 110.479 105.605 108.732C103.824 106.986 102.934 104.514 102.934 101.314C102.934 98.0215 103.754 95.4785 105.395 93.6855C107.047 91.8809 109.326 90.9785 112.232 90.9785C115.01 90.9785 117.172 91.7695 118.719 93.3516C120.266 94.9336 121.039 97.1191 121.039 99.9082V102.51H108.365C108.424 104.033 108.875 105.223 109.719 106.078C110.562 106.934 111.746 107.361 113.27 107.361C114.453 107.361 115.572 107.238 116.627 106.992C117.682 106.746 118.783 106.354 119.932 105.814V109.963C118.994 110.432 117.992 110.777 116.926 111C115.859 111.234 114.559 111.352 113.023 111.352ZM122.586 91.3477H128.457L132.166 102.404C132.482 103.365 132.699 104.502 132.816 105.814H132.922C133.051 104.607 133.303 103.471 133.678 102.404L137.316 91.3477H143.064L134.75 113.514C133.988 115.564 132.898 117.1 131.48 118.119C130.074 119.139 128.428 119.648 126.541 119.648C125.615 119.648 124.707 119.549 123.816 119.35V115.096C124.461 115.248 125.164 115.324 125.926 115.324C126.875 115.324 127.701 115.031 128.404 114.445C129.119 113.871 129.676 112.998 130.074 111.826L130.391 110.859L122.586 91.3477ZM163.525 107.08C164.463 107.08 165.588 106.875 166.9 106.465V110.455C165.564 111.053 163.924 111.352 161.979 111.352C159.834 111.352 158.27 110.812 157.285 109.734C156.312 108.645 155.826 107.016 155.826 104.848V95.373H153.26V93.1055L156.213 91.3125L157.76 87.1641H161.188V91.3477H166.689V95.373H161.188V104.848C161.188 105.609 161.398 106.172 161.82 106.535C162.254 106.898 162.822 107.08 163.525 107.08ZM175.162 101.139C175.162 103.084 175.479 104.555 176.111 105.551C176.756 106.547 177.799 107.045 179.24 107.045C180.67 107.045 181.695 106.553 182.316 105.568C182.949 104.572 183.266 103.096 183.266 101.139C183.266 99.1934 182.949 97.7344 182.316 96.7617C181.684 95.7891 180.646 95.3027 179.205 95.3027C177.775 95.3027 176.744 95.7891 176.111 96.7617C175.479 97.7227 175.162 99.1816 175.162 101.139ZM188.75 101.139C188.75 104.338 187.906 106.84 186.219 108.645C184.531 110.449 182.182 111.352 179.17 111.352C177.283 111.352 175.619 110.941 174.178 110.121C172.736 109.289 171.629 108.1 170.855 106.553C170.082 105.006 169.695 103.201 169.695 101.139C169.695 97.9277 170.533 95.4316 172.209 93.6504C173.885 91.8691 176.24 90.9785 179.275 90.9785C181.162 90.9785 182.826 91.3887 184.268 92.209C185.709 93.0293 186.816 94.207 187.59 95.7422C188.363 97.2773 188.75 99.0762 188.75 101.139ZM213.395 95.373H208.754V111H203.393V95.373H200.439V92.7891L203.393 91.3477V89.9062C203.393 87.668 203.943 86.0332 205.045 85.002C206.146 83.9707 207.91 83.4551 210.336 83.4551C212.188 83.4551 213.834 83.7305 215.275 84.2812L213.904 88.2188C212.826 87.8789 211.83 87.709 210.916 87.709C210.154 87.709 209.604 87.9375 209.264 88.3945C208.924 88.8398 208.754 89.4141 208.754 90.1172V91.3477H213.395V95.373ZM216.242 86.2676C216.242 84.5215 217.215 83.6484 219.16 83.6484C221.105 83.6484 222.078 84.5215 222.078 86.2676C222.078 87.0996 221.832 87.75 221.34 88.2188C220.859 88.6758 220.133 88.9043 219.16 88.9043C217.215 88.9043 216.242 88.0254 216.242 86.2676ZM221.832 111H216.471V91.3477H221.832V111ZM245.598 111H240.236V99.5215C240.236 98.1035 239.984 97.043 239.48 96.3398C238.977 95.625 238.174 95.2676 237.072 95.2676C235.572 95.2676 234.488 95.7715 233.82 96.7793C233.152 97.7754 232.818 99.4336 232.818 101.754V111H227.457V91.3477H231.553L232.273 93.8613H232.572C233.17 92.9121 233.99 92.1973 235.033 91.7168C236.088 91.2246 237.283 90.9785 238.619 90.9785C240.904 90.9785 242.639 91.5996 243.822 92.8418C245.006 94.0723 245.598 95.8535 245.598 98.1855V111ZM263.598 111L262.561 108.328H262.42C261.518 109.465 260.586 110.256 259.625 110.701C258.676 111.135 257.434 111.352 255.898 111.352C254.012 111.352 252.523 110.812 251.434 109.734C250.355 108.656 249.816 107.121 249.816 105.129C249.816 103.043 250.543 101.508 251.996 100.523C253.461 99.5273 255.664 98.9766 258.605 98.8711L262.016 98.7656V97.9043C262.016 95.9121 260.996 94.916 258.957 94.916C257.387 94.916 255.541 95.3906 253.42 96.3398L251.645 92.7188C253.906 91.5352 256.414 90.9434 259.168 90.9434C261.805 90.9434 263.826 91.5176 265.232 92.666C266.639 93.8145 267.342 95.5605 267.342 97.9043V111H263.598ZM262.016 101.895L259.941 101.965C258.383 102.012 257.223 102.293 256.461 102.809C255.699 103.324 255.318 104.109 255.318 105.164C255.318 106.676 256.186 107.432 257.92 107.432C259.162 107.432 260.152 107.074 260.891 106.359C261.641 105.645 262.016 104.695 262.016 103.512V101.895ZM291.02 111H285.658V99.5215C285.658 98.1035 285.406 97.043 284.902 96.3398C284.398 95.625 283.596 95.2676 282.494 95.2676C280.994 95.2676 279.91 95.7715 279.242 96.7793C278.574 97.7754 278.24 99.4336 278.24 101.754V111H272.879V91.3477H276.975L277.695 93.8613H277.994C278.592 92.9121 279.412 92.1973 280.455 91.7168C281.51 91.2246 282.705 90.9785 284.041 90.9785C286.326 90.9785 288.061 91.5996 289.244 92.8418C290.428 94.0723 291.02 95.8535 291.02 98.1855V111ZM304.52 111.352C298.402 111.352 295.344 107.994 295.344 101.279C295.344 97.9395 296.176 95.3906 297.84 93.6328C299.504 91.8633 301.889 90.9785 304.994 90.9785C307.268 90.9785 309.307 91.4238 311.111 92.3145L309.529 96.4629C308.686 96.123 307.9 95.8477 307.174 95.6367C306.447 95.4141 305.721 95.3027 304.994 95.3027C302.205 95.3027 300.811 97.2832 300.811 101.244C300.811 105.088 302.205 107.01 304.994 107.01C306.025 107.01 306.98 106.875 307.859 106.605C308.738 106.324 309.617 105.891 310.496 105.305V109.893C309.629 110.443 308.75 110.824 307.859 111.035C306.98 111.246 305.867 111.352 304.52 111.352ZM323.205 94.793C322.068 94.793 321.178 95.1562 320.533 95.8828C319.889 96.5977 319.52 97.6172 319.426 98.9414H326.949C326.926 97.6172 326.58 96.5977 325.912 95.8828C325.244 95.1562 324.342 94.793 323.205 94.793ZM323.961 111.352C320.797 111.352 318.324 110.479 316.543 108.732C314.762 106.986 313.871 104.514 313.871 101.314C313.871 98.0215 314.691 95.4785 316.332 93.6855C317.984 91.8809 320.264 90.9785 323.17 90.9785C325.947 90.9785 328.109 91.7695 329.656 93.3516C331.203 94.9336 331.977 97.1191 331.977 99.9082V102.51H319.303C319.361 104.033 319.812 105.223 320.656 106.078C321.5 106.934 322.684 107.361 324.207 107.361C325.391 107.361 326.51 107.238 327.564 106.992C328.619 106.746 329.721 106.354 330.869 105.814V109.963C329.932 110.432 328.93 110.777 327.863 111C326.797 111.234 325.496 111.352 323.961 111.352ZM353.967 107.08C354.904 107.08 356.029 106.875 357.342 106.465V110.455C356.006 111.053 354.365 111.352 352.42 111.352C350.275 111.352 348.711 110.812 347.727 109.734C346.754 108.645 346.268 107.016 346.268 104.848V95.373H343.701V93.1055L346.654 91.3125L348.201 87.1641H351.629V91.3477H357.131V95.373H351.629V104.848C351.629 105.609 351.84 106.172 352.262 106.535C352.695 106.898 353.264 107.08 353.967 107.08ZM379.473 111H374.111V99.5215C374.111 96.6855 373.057 95.2676 370.947 95.2676C369.447 95.2676 368.363 95.7773 367.695 96.7969C367.027 97.8164 366.693 99.4688 366.693 101.754V111H361.332V83.6484H366.693V89.2207C366.693 89.6543 366.652 90.6738 366.57 92.2793L366.447 93.8613H366.729C367.924 91.9395 369.822 90.9785 372.424 90.9785C374.732 90.9785 376.484 91.5996 377.68 92.8418C378.875 94.084 379.473 95.8652 379.473 98.1855V111ZM393.131 94.793C391.994 94.793 391.104 95.1562 390.459 95.8828C389.814 96.5977 389.445 97.6172 389.352 98.9414H396.875C396.852 97.6172 396.506 96.5977 395.838 95.8828C395.17 95.1562 394.268 94.793 393.131 94.793ZM393.887 111.352C390.723 111.352 388.25 110.479 386.469 108.732C384.688 106.986 383.797 104.514 383.797 101.314C383.797 98.0215 384.617 95.4785 386.258 93.6855C387.91 91.8809 390.189 90.9785 393.096 90.9785C395.873 90.9785 398.035 91.7695 399.582 93.3516C401.129 94.9336 401.902 97.1191 401.902 99.9082V102.51H389.229C389.287 104.033 389.738 105.223 390.582 106.078C391.426 106.934 392.609 107.361 394.133 107.361C395.316 107.361 396.436 107.238 397.49 106.992C398.545 106.746 399.646 106.354 400.795 105.814V109.963C399.857 110.432 398.855 110.777 397.789 111C396.723 111.234 395.422 111.352 393.887 111.352ZM406.033 86.2676C406.033 84.5215 407.006 83.6484 408.951 83.6484C410.896 83.6484 411.869 84.5215 411.869 86.2676C411.869 87.0996 411.623 87.75 411.131 88.2188C410.65 88.6758 409.924 88.9043 408.951 88.9043C407.006 88.9043 406.033 88.0254 406.033 86.2676ZM411.623 111H406.262V91.3477H411.623V111ZM428.234 90.9785C428.961 90.9785 429.564 91.0312 430.045 91.1367L429.641 96.1641C429.207 96.0469 428.68 95.9883 428.059 95.9883C426.348 95.9883 425.012 96.4277 424.051 97.3066C423.102 98.1855 422.627 99.416 422.627 100.998V111H417.266V91.3477H421.326L422.117 94.6523H422.381C422.99 93.5508 423.811 92.666 424.842 91.998C425.885 91.3184 427.016 90.9785 428.234 90.9785ZM33.6055 160.352C31.2969 160.352 29.4863 159.514 28.1738 157.838H27.8926C28.0801 159.479 28.1738 160.428 28.1738 160.686V168.648H22.8125V140.348H27.1719L27.9277 142.896H28.1738C29.4277 140.951 31.2852 139.979 33.7461 139.979C36.0664 139.979 37.8828 140.875 39.1953 142.668C40.5078 144.461 41.1641 146.951 41.1641 150.139C41.1641 152.236 40.8535 154.059 40.2324 155.605C39.623 157.152 38.75 158.33 37.6133 159.139C36.4766 159.947 35.1406 160.352 33.6055 160.352ZM32.0234 144.268C30.6992 144.268 29.7324 144.678 29.123 145.498C28.5137 146.307 28.1973 147.648 28.1738 149.523V150.104C28.1738 152.213 28.4844 153.725 29.1055 154.639C29.7383 155.553 30.7344 156.01 32.0938 156.01C34.4961 156.01 35.6973 154.029 35.6973 150.068C35.6973 148.135 35.3984 146.688 34.8008 145.727C34.2148 144.754 33.2891 144.268 32.0234 144.268ZM58.0742 160L57.0371 157.328H56.8965C55.9941 158.465 55.0625 159.256 54.1016 159.701C53.1523 160.135 51.9102 160.352 50.375 160.352C48.4883 160.352 47 159.812 45.9102 158.734C44.832 157.656 44.293 156.121 44.293 154.129C44.293 152.043 45.0195 150.508 46.4727 149.523C47.9375 148.527 50.1406 147.977 53.082 147.871L56.4922 147.766V146.904C56.4922 144.912 55.4727 143.916 53.4336 143.916C51.8633 143.916 50.0176 144.391 47.8965 145.34L46.1211 141.719C48.3828 140.535 50.8906 139.943 53.6445 139.943C56.2812 139.943 58.3027 140.518 59.709 141.666C61.1152 142.814 61.8184 144.561 61.8184 146.904V160H58.0742ZM56.4922 150.895L54.418 150.965C52.8594 151.012 51.6992 151.293 50.9375 151.809C50.1758 152.324 49.7949 153.109 49.7949 154.164C49.7949 155.676 50.6621 156.432 52.3965 156.432C53.6387 156.432 54.6289 156.074 55.3672 155.359C56.1172 154.645 56.4922 153.695 56.4922 152.512V150.895ZM78.3242 139.979C79.0508 139.979 79.6543 140.031 80.1348 140.137L79.7305 145.164C79.2969 145.047 78.7695 144.988 78.1484 144.988C76.4375 144.988 75.1016 145.428 74.1406 146.307C73.1914 147.186 72.7168 148.416 72.7168 149.998V160H67.3555V140.348H71.416L72.207 143.652H72.4707C73.0801 142.551 73.9004 141.666 74.9316 140.998C75.9746 140.318 77.1055 139.979 78.3242 139.979ZM91.9824 156.08C92.9199 156.08 94.0449 155.875 95.3574 155.465V159.455C94.0215 160.053 92.3809 160.352 90.4355 160.352C88.291 160.352 86.7266 159.812 85.7422 158.734C84.7695 157.645 84.2832 156.016 84.2832 153.848V144.373H81.7168V142.105L84.6699 140.312L86.2168 136.164H89.6445V140.348H95.1465V144.373H89.6445V153.848C89.6445 154.609 89.8555 155.172 90.2773 155.535C90.7109 155.898 91.2793 156.08 91.9824 156.08ZM99.1191 135.268C99.1191 133.521 100.092 132.648 102.037 132.648C103.982 132.648 104.955 133.521 104.955 135.268C104.955 136.1 104.709 136.75 104.217 137.219C103.736 137.676 103.01 137.904 102.037 137.904C100.092 137.904 99.1191 137.025 99.1191 135.268ZM104.709 160H99.3477V140.348H104.709V160ZM118.332 160.352C112.215 160.352 109.156 156.994 109.156 150.279C109.156 146.939 109.988 144.391 111.652 142.633C113.316 140.863 115.701 139.979 118.807 139.979C121.08 139.979 123.119 140.424 124.924 141.314L123.342 145.463C122.498 145.123 121.713 144.848 120.986 144.637C120.26 144.414 119.533 144.303 118.807 144.303C116.018 144.303 114.623 146.283 114.623 150.244C114.623 154.088 116.018 156.01 118.807 156.01C119.838 156.01 120.793 155.875 121.672 155.605C122.551 155.324 123.43 154.891 124.309 154.305V158.893C123.441 159.443 122.562 159.824 121.672 160.035C120.793 160.246 119.68 160.352 118.332 160.352ZM128.65 135.268C128.65 133.521 129.623 132.648 131.568 132.648C133.514 132.648 134.486 133.521 134.486 135.268C134.486 136.1 134.24 136.75 133.748 137.219C133.268 137.676 132.541 137.904 131.568 137.904C129.623 137.904 128.65 137.025 128.65 135.268ZM134.24 160H128.879V140.348H134.24V160ZM150.676 160.352C148.367 160.352 146.557 159.514 145.244 157.838H144.963C145.15 159.479 145.244 160.428 145.244 160.686V168.648H139.883V140.348H144.242L144.998 142.896H145.244C146.498 140.951 148.355 139.979 150.816 139.979C153.137 139.979 154.953 140.875 156.266 142.668C157.578 144.461 158.234 146.951 158.234 150.139C158.234 152.236 157.924 154.059 157.303 155.605C156.693 157.152 155.82 158.33 154.684 159.139C153.547 159.947 152.211 160.352 150.676 160.352ZM149.094 144.268C147.77 144.268 146.803 144.678 146.193 145.498C145.584 146.307 145.268 147.648 145.244 149.523V150.104C145.244 152.213 145.555 153.725 146.176 154.639C146.809 155.553 147.805 156.01 149.164 156.01C151.566 156.01 152.768 154.029 152.768 150.068C152.768 148.135 152.469 146.688 151.871 145.727C151.285 144.754 150.359 144.268 149.094 144.268ZM175.145 160L174.107 157.328H173.967C173.064 158.465 172.133 159.256 171.172 159.701C170.223 160.135 168.98 160.352 167.445 160.352C165.559 160.352 164.07 159.812 162.98 158.734C161.902 157.656 161.363 156.121 161.363 154.129C161.363 152.043 162.09 150.508 163.543 149.523C165.008 148.527 167.211 147.977 170.152 147.871L173.562 147.766V146.904C173.562 144.912 172.543 143.916 170.504 143.916C168.934 143.916 167.088 144.391 164.967 145.34L163.191 141.719C165.453 140.535 167.961 139.943 170.715 139.943C173.352 139.943 175.373 140.518 176.779 141.666C178.186 142.814 178.889 144.561 178.889 146.904V160H175.145ZM173.562 150.895L171.488 150.965C169.93 151.012 168.77 151.293 168.008 151.809C167.246 152.324 166.865 153.109 166.865 154.164C166.865 155.676 167.732 156.432 169.467 156.432C170.709 156.432 171.699 156.074 172.438 155.359C173.188 154.645 173.562 153.695 173.562 152.512V150.895ZM192.705 156.08C193.643 156.08 194.768 155.875 196.08 155.465V159.455C194.744 160.053 193.104 160.352 191.158 160.352C189.014 160.352 187.449 159.812 186.465 158.734C185.492 157.645 185.006 156.016 185.006 153.848V144.373H182.439V142.105L185.393 140.312L186.939 136.164H190.367V140.348H195.869V144.373H190.367V153.848C190.367 154.609 190.578 155.172 191 155.535C191.434 155.898 192.002 156.08 192.705 156.08ZM199.842 135.268C199.842 133.521 200.814 132.648 202.76 132.648C204.705 132.648 205.678 133.521 205.678 135.268C205.678 136.1 205.432 136.75 204.939 137.219C204.459 137.676 203.732 137.904 202.76 137.904C200.814 137.904 199.842 137.025 199.842 135.268ZM205.432 160H200.07V140.348H205.432V160ZM215.346 150.139C215.346 152.084 215.662 153.555 216.295 154.551C216.939 155.547 217.982 156.045 219.424 156.045C220.854 156.045 221.879 155.553 222.5 154.568C223.133 153.572 223.449 152.096 223.449 150.139C223.449 148.193 223.133 146.734 222.5 145.762C221.867 144.789 220.83 144.303 219.389 144.303C217.959 144.303 216.928 144.789 216.295 145.762C215.662 146.723 215.346 148.182 215.346 150.139ZM228.934 150.139C228.934 153.338 228.09 155.84 226.402 157.645C224.715 159.449 222.365 160.352 219.354 160.352C217.467 160.352 215.803 159.941 214.361 159.121C212.92 158.289 211.812 157.1 211.039 155.553C210.266 154.006 209.879 152.201 209.879 150.139C209.879 146.928 210.717 144.432 212.393 142.65C214.068 140.869 216.424 139.979 219.459 139.979C221.346 139.979 223.01 140.389 224.451 141.209C225.893 142.029 227 143.207 227.773 144.742C228.547 146.277 228.934 148.076 228.934 150.139ZM251.504 160H246.143V148.521C246.143 147.104 245.891 146.043 245.387 145.34C244.883 144.625 244.08 144.268 242.979 144.268C241.479 144.268 240.395 144.771 239.727 145.779C239.059 146.775 238.725 148.434 238.725 150.754V160H233.363V140.348H237.459L238.18 142.861H238.479C239.076 141.912 239.896 141.197 240.939 140.717C241.994 140.225 243.189 139.979 244.525 139.979C246.811 139.979 248.545 140.6 249.729 141.842C250.912 143.072 251.504 144.854 251.504 147.186V160ZM266.146 135.268C266.146 133.521 267.119 132.648 269.064 132.648C271.01 132.648 271.982 133.521 271.982 135.268C271.982 136.1 271.736 136.75 271.244 137.219C270.764 137.676 270.037 137.904 269.064 137.904C267.119 137.904 266.146 137.025 266.146 135.268ZM271.736 160H266.375V140.348H271.736V160ZM295.52 160H290.158V148.521C290.158 147.104 289.906 146.043 289.402 145.34C288.898 144.625 288.096 144.268 286.994 144.268C285.494 144.268 284.41 144.771 283.742 145.779C283.074 146.775 282.74 148.434 282.74 150.754V160H277.379V140.348H281.475L282.195 142.861H282.494C283.092 141.912 283.912 141.197 284.955 140.717C286.01 140.225 287.205 139.979 288.541 139.979C290.826 139.979 292.561 140.6 293.744 141.842C294.928 143.072 295.52 144.854 295.52 147.186V160ZM318.67 156.08C319.607 156.08 320.732 155.875 322.045 155.465V159.455C320.709 160.053 319.068 160.352 317.123 160.352C314.979 160.352 313.414 159.812 312.43 158.734C311.457 157.645 310.971 156.016 310.971 153.848V144.373H308.404V142.105L311.357 140.312L312.904 136.164H316.332V140.348H321.834V144.373H316.332V153.848C316.332 154.609 316.543 155.172 316.965 155.535C317.398 155.898 317.967 156.08 318.67 156.08ZM344.176 160H338.814V148.521C338.814 145.686 337.76 144.268 335.65 144.268C334.15 144.268 333.066 144.777 332.398 145.797C331.73 146.816 331.396 148.469 331.396 150.754V160H326.035V132.648H331.396V138.221C331.396 138.654 331.355 139.674 331.273 141.279L331.15 142.861H331.432C332.627 140.939 334.525 139.979 337.127 139.979C339.436 139.979 341.188 140.6 342.383 141.842C343.578 143.084 344.176 144.865 344.176 147.186V160ZM357.834 143.793C356.697 143.793 355.807 144.156 355.162 144.883C354.518 145.598 354.148 146.617 354.055 147.941H361.578C361.555 146.617 361.209 145.598 360.541 144.883C359.873 144.156 358.971 143.793 357.834 143.793ZM358.59 160.352C355.426 160.352 352.953 159.479 351.172 157.732C349.391 155.986 348.5 153.514 348.5 150.314C348.5 147.021 349.32 144.479 350.961 142.686C352.613 140.881 354.893 139.979 357.799 139.979C360.576 139.979 362.738 140.77 364.285 142.352C365.832 143.934 366.605 146.119 366.605 148.908V151.51H353.932C353.99 153.033 354.441 154.223 355.285 155.078C356.129 155.934 357.312 156.361 358.836 156.361C360.02 156.361 361.139 156.238 362.193 155.992C363.248 155.746 364.35 155.354 365.498 154.814V158.963C364.561 159.432 363.559 159.777 362.492 160C361.426 160.234 360.125 160.352 358.59 160.352ZM22.584 184.268C22.584 182.521 23.5566 181.648 25.502 181.648C27.4473 181.648 28.4199 182.521 28.4199 184.268C28.4199 185.1 28.1738 185.75 27.6816 186.219C27.2012 186.676 26.4746 186.904 25.502 186.904C23.5566 186.904 22.584 186.025 22.584 184.268ZM28.1738 209H22.8125V189.348H28.1738V209ZM51.957 209H46.5957V197.521C46.5957 196.104 46.3438 195.043 45.8398 194.34C45.3359 193.625 44.5332 193.268 43.4316 193.268C41.9316 193.268 40.8477 193.771 40.1797 194.779C39.5117 195.775 39.1777 197.434 39.1777 199.754V209H33.8164V189.348H37.9121L38.6328 191.861H38.9316C39.5293 190.912 40.3496 190.197 41.3926 189.717C42.4473 189.225 43.6426 188.979 44.9785 188.979C47.2637 188.979 48.998 189.6 50.1816 190.842C51.3652 192.072 51.957 193.854 51.957 196.186V209ZM65.7559 205.08C66.6934 205.08 67.8184 204.875 69.1309 204.465V208.455C67.7949 209.053 66.1543 209.352 64.209 209.352C62.0645 209.352 60.5 208.812 59.5156 207.734C58.543 206.645 58.0566 205.016 58.0566 202.848V193.373H55.4902V191.105L58.4434 189.312L59.9902 185.164H63.418V189.348H68.9199V193.373H63.418V202.848C63.418 203.609 63.6289 204.172 64.0508 204.535C64.4844 204.898 65.0527 205.08 65.7559 205.08ZM81.2598 192.793C80.123 192.793 79.2324 193.156 78.5879 193.883C77.9434 194.598 77.5742 195.617 77.4805 196.941H85.0039C84.9805 195.617 84.6348 194.598 83.9668 193.883C83.2988 193.156 82.3965 192.793 81.2598 192.793ZM82.0156 209.352C78.8516 209.352 76.3789 208.479 74.5977 206.732C72.8164 204.986 71.9258 202.514 71.9258 199.314C71.9258 196.021 72.7461 193.479 74.3867 191.686C76.0391 189.881 78.3184 188.979 81.2246 188.979C84.002 188.979 86.1641 189.77 87.7109 191.352C89.2578 192.934 90.0312 195.119 90.0312 197.908V200.51H77.3574C77.416 202.033 77.8672 203.223 78.7109 204.078C79.5547 204.934 80.7383 205.361 82.2617 205.361C83.4453 205.361 84.5645 205.238 85.6191 204.992C86.6738 204.746 87.7754 204.354 88.9238 203.814V207.963C87.9863 208.432 86.9844 208.777 85.918 209C84.8516 209.234 83.5508 209.352 82.0156 209.352ZM105.359 188.979C106.086 188.979 106.689 189.031 107.17 189.137L106.766 194.164C106.332 194.047 105.805 193.988 105.184 193.988C103.473 193.988 102.137 194.428 101.176 195.307C100.227 196.186 99.752 197.416 99.752 198.998V209H94.3906V189.348H98.4512L99.2422 192.652H99.5059C100.115 191.551 100.936 190.666 101.967 189.998C103.01 189.318 104.141 188.979 105.359 188.979ZM128.879 209H123.518V197.521C123.518 196.104 123.266 195.043 122.762 194.34C122.258 193.625 121.455 193.268 120.354 193.268C118.854 193.268 117.77 193.771 117.102 194.779C116.434 195.775 116.1 197.434 116.1 199.754V209H110.738V189.348H114.834L115.555 191.861H115.854C116.451 190.912 117.271 190.197 118.314 189.717C119.369 189.225 120.564 188.979 121.9 188.979C124.186 188.979 125.92 189.6 127.104 190.842C128.287 192.072 128.879 193.854 128.879 196.186V209ZM148.109 203.164C148.109 205.18 147.406 206.715 146 207.77C144.605 208.824 142.514 209.352 139.725 209.352C138.295 209.352 137.076 209.252 136.068 209.053C135.061 208.865 134.117 208.584 133.238 208.209V203.779C134.234 204.248 135.354 204.641 136.596 204.957C137.85 205.273 138.951 205.432 139.9 205.432C141.846 205.432 142.818 204.869 142.818 203.744C142.818 203.322 142.689 202.982 142.432 202.725C142.174 202.455 141.729 202.156 141.096 201.828C140.463 201.488 139.619 201.096 138.564 200.65C137.053 200.018 135.939 199.432 135.225 198.893C134.521 198.354 134.006 197.738 133.678 197.047C133.361 196.344 133.203 195.482 133.203 194.463C133.203 192.717 133.877 191.369 135.225 190.42C136.584 189.459 138.506 188.979 140.99 188.979C143.357 188.979 145.66 189.494 147.898 190.525L146.281 194.393C145.297 193.971 144.377 193.625 143.521 193.355C142.666 193.086 141.793 192.951 140.902 192.951C139.32 192.951 138.529 193.379 138.529 194.234C138.529 194.715 138.781 195.131 139.285 195.482C139.801 195.834 140.92 196.355 142.643 197.047C144.178 197.668 145.303 198.248 146.018 198.787C146.732 199.326 147.26 199.947 147.6 200.65C147.939 201.354 148.109 202.191 148.109 203.164ZM170.434 209H165.072V197.521C165.072 194.686 164.018 193.268 161.908 193.268C160.408 193.268 159.324 193.777 158.656 194.797C157.988 195.816 157.654 197.469 157.654 199.754V209H152.293V181.648H157.654V187.221C157.654 187.654 157.613 188.674 157.531 190.279L157.408 191.861H157.689C158.885 189.939 160.783 188.979 163.385 188.979C165.693 188.979 167.445 189.6 168.641 190.842C169.836 192.084 170.434 193.865 170.434 196.186V209ZM175.725 184.268C175.725 182.521 176.697 181.648 178.643 181.648C180.588 181.648 181.561 182.521 181.561 184.268C181.561 185.1 181.314 185.75 180.822 186.219C180.342 186.676 179.615 186.904 178.643 186.904C176.697 186.904 175.725 186.025 175.725 184.268ZM181.314 209H175.953V189.348H181.314V209ZM197.75 209.352C195.441 209.352 193.631 208.514 192.318 206.838H192.037C192.225 208.479 192.318 209.428 192.318 209.686V217.648H186.957V189.348H191.316L192.072 191.896H192.318C193.572 189.951 195.43 188.979 197.891 188.979C200.211 188.979 202.027 189.875 203.34 191.668C204.652 193.461 205.309 195.951 205.309 199.139C205.309 201.236 204.998 203.059 204.377 204.605C203.768 206.152 202.895 207.33 201.758 208.139C200.621 208.947 199.285 209.352 197.75 209.352ZM196.168 193.268C194.844 193.268 193.877 193.678 193.268 194.498C192.658 195.307 192.342 196.648 192.318 198.523V199.104C192.318 201.213 192.629 202.725 193.25 203.639C193.883 204.553 194.879 205.01 196.238 205.01C198.641 205.01 199.842 203.029 199.842 199.068C199.842 197.135 199.543 195.688 198.945 194.727C198.359 193.754 197.434 193.268 196.168 193.268Z" fill="#171B25"/>
<path d="M11.1918 15.757C11.1918 14.877 10.9618 14.139 10.5018 13.54C10.1758 13.128 9.7338 12.857 9.1748 12.728C8.6248 12.6 8.1048 12.591 7.6348 12.7C7.4748 11.75 7.7348 10.744 8.3948 9.678C9.0548 8.613 9.9098 7.811 10.9528 7.275L9.3728 5C8.5728 5.396 7.8128 5.898 7.1128 6.505C6.4028 7.112 5.7728 7.81 5.2128 8.599C4.6528 9.388 4.2328 10.279 3.9628 11.289C3.6928 12.299 3.6168 13.329 3.7458 14.389C3.9138 15.789 4.3658 16.909 5.1018 17.739C5.8368 18.579 6.7538 18.999 7.8498 18.999C8.8148 18.999 9.6158 18.709 10.2498 18.121C10.8778 17.545 11.1898 16.756 11.1898 15.753L11.1918 15.756V15.757ZM20.3158 15.757C20.3158 14.877 20.0858 14.139 19.6258 13.54C19.2998 13.12 18.8558 12.848 18.2988 12.723C17.7388 12.599 17.2248 12.593 16.7588 12.701C16.5988 11.761 16.8488 10.751 17.5088 9.681C18.1688 8.621 19.0228 7.821 20.0658 7.281L18.4898 5C17.6898 5.396 16.9348 5.898 16.2298 6.505C15.5133 7.12099 14.877 7.82449 14.3358 8.599C13.7798 9.389 13.3658 10.279 13.0958 11.289C12.8226 12.2984 12.7488 13.3514 12.8788 14.389C13.0438 15.789 13.4938 16.909 14.2288 17.739C14.9608 18.572 15.8748 18.989 16.9708 18.989C17.9378 18.989 18.7388 18.699 19.3728 18.113C19.9998 17.537 20.3148 16.748 20.3148 15.745V15.755L20.3158 15.757Z" fill="#333CC1"/>
<path d="M241.808 193.243C241.808 194.123 242.038 194.861 242.498 195.46C242.824 195.872 243.266 196.143 243.825 196.272C244.375 196.4 244.895 196.409 245.365 196.3C245.525 197.25 245.265 198.256 244.605 199.322C243.945 200.387 243.09 201.189 242.047 201.725L243.627 204C244.427 203.604 245.187 203.102 245.887 202.495C246.597 201.888 247.227 201.19 247.787 200.401C248.347 199.612 248.767 198.721 249.037 197.711C249.307 196.701 249.383 195.671 249.254 194.611C249.086 193.211 248.634 192.091 247.898 191.261C247.163 190.421 246.246 190.001 245.15 190.001C244.185 190.001 243.384 190.291 242.75 190.879C242.122 191.455 241.81 192.244 241.81 193.247L241.808 193.244L241.808 193.243ZM232.684 193.243C232.684 194.123 232.914 194.861 233.374 195.46C233.7 195.88 234.144 196.152 234.701 196.277C235.261 196.401 235.775 196.407 236.241 196.299C236.401 197.239 236.151 198.249 235.491 199.319C234.831 200.379 233.977 201.179 232.934 201.719L234.51 204C235.31 203.604 236.065 203.102 236.77 202.495C237.487 201.879 238.123 201.176 238.664 200.401C239.22 199.611 239.634 198.721 239.904 197.711C240.177 196.702 240.251 195.649 240.121 194.611C239.956 193.211 239.506 192.091 238.771 191.261C238.039 190.428 237.125 190.011 236.029 190.011C235.062 190.011 234.261 190.301 233.627 190.887C233 191.463 232.685 192.252 232.685 193.255L232.685 193.245L232.684 193.243Z" fill="#333CC1"/>
</svg>
