<svg width="72" height="72" viewBox="0 0 72 72" fill="none" xmlns="http://www.w3.org/2000/svg">
<path d="M63 27H45V9H63V27ZM49.5 22.5H58.5V13.5H49.5V22.5Z" fill="#1652F0"/>
<path d="M38.25 33.75V20.25H20.25V51.75H51.75V33.75H38.25ZM24.75 24.75H33.75V33.75H24.75V24.75ZM33.75 47.25H24.75V38.25H33.75V47.25ZM47.25 47.25H38.25V38.25H47.25V47.25Z" fill="#1652F0"/>
<path d="M58.5 63H13.5C12.3069 62.9988 11.163 62.5243 10.3193 61.6807C9.47568 60.837 9.00119 59.6931 9 58.5V13.5C9.00119 12.3069 9.47568 11.163 10.3193 10.3193C11.163 9.47568 12.3069 9.00119 13.5 9H36V13.5H13.5V58.5H58.5V36H63V58.5C62.9988 59.6931 62.5243 60.837 61.6807 61.6807C60.837 62.5243 59.6931 62.9988 58.5 63Z" fill="#1652F0"/>
</svg>
